# xmcd CD database file
#
# Track frame offsets:
#	150
#	30002
#	53119
#	65247
#	89863
#	108145
#	128252
#	151640
#	168651
#	193169
#	221045
#	246495
#	276221
#
# Disc length: 4033 seconds
#
# Revision: 1
# Processed by: cddbd v1.5.1PL2 Copyright (c) Steve Scherf et al.
# Submitted via: CDex 1.51
#
DISCID=b60fbf0d
DTITLE=Sam Most - Simply Flute
DYEAR=2000
DGENRE=Jazz
TTITLE0=Devil May Care
TTITLE1=Anthropology
TTITLE2=Body and Soul
TTITLE3=Manteca
TTITLE4=At the End of the Night
TTITLE5=My Little Suede Shoes
TTITLE6=Waltz for Debby
TTITLE7=The Eternal Triangle
TTITLE8=Falling in Love with Love
TTITLE9=Sail Away
TTITLE10=But Beautiful
TTITLE11=A Beautiful Friendship
TTITLE12=The Song is You
EXTD=YEAR: 2000
EXTT0=
EXTT1=
EXTT2=
EXTT3=
EXTT4=
EXTT5=
EXTT6=
EXTT7=
EXTT8=
EXTT9=
EXTT10=
EXTT11=
EXTT12=
PLAYORDER=
